Coordinates
version=1
nRows=27
nColumns=12
inDegrees=yes

Units are S.I. units (second, meters, Newtons, ...)
Angles are in degrees

endheader
time	SC_y	SC_z	SC_x	AC_y	AC_z	AC_x	GH_y	GH_z	GH_yy	EL_x	PS_y
       0.0              -32.37         -1.364          26.79           31.2         -3.547          0.398         -58.88           30.2          96.16           74.6          28.74
   0.04708              -32.37         -1.364          26.79           31.2         -3.546         0.3972         -58.86          30.19          96.15           74.6          28.75
   0.09416              -32.37         -1.364          26.79          31.21         -3.545         0.3963         -58.83          30.19          96.14          74.59          28.76
    0.1412              -32.37         -1.365          26.79          31.21         -3.544         0.3953          -58.8          30.18          96.13          74.59          28.78
    0.1883              -32.37         -1.365          26.79          31.22         -3.542         0.3943         -58.76          30.18          96.11          74.58          28.79
    0.2354              -32.37         -1.365          26.79          31.23         -3.541         0.3933         -58.73          30.17           96.1          74.57           28.8
    0.2825              -32.37         -1.365          26.79          31.23         -3.539         0.3921         -58.69          30.17          96.08          74.57          28.82
    0.3296              -32.37         -1.365          26.79          31.24         -3.538         0.3909         -58.65          30.16          96.07          74.56          28.84
    0.3766              -32.37         -1.366          26.79          31.25         -3.536         0.3896          -58.6          30.15          96.05          74.55          28.86
    0.4237              -32.37         -1.366          26.78          31.26         -3.534         0.3882         -58.56          30.15          96.03          74.55          28.88
    0.4708              -32.37         -1.366          26.78          31.27         -3.532         0.3867          -58.5          30.14          96.01          74.54           28.9
    0.5179              -32.37         -1.366          26.78          31.28          -3.53          0.385         -58.45          30.13          95.99          74.53          28.92
     0.565              -32.37         -1.367          26.78          31.29         -3.527         0.3833         -58.39          30.12          95.97          74.52          28.94
     0.612              -32.37         -1.367          26.78           31.3         -3.525         0.3814         -58.33          30.11          95.94          74.51          28.97
    0.6591              -32.37         -1.367          26.78          31.31         -3.522         0.3793         -58.26           30.1          95.92           74.5           29.0
    0.7062              -32.37         -1.368          26.77          31.33         -3.519         0.3771         -58.19          30.08          95.89          74.49          29.03
    0.7533              -32.37         -1.368          26.77          31.34         -3.516         0.3747          -58.1          30.07          95.86          74.47          29.06
    0.8004              -32.37         -1.369          26.77          31.36         -3.512          0.372         -58.02          30.06          95.82          74.46           29.1
    0.8475              -32.37         -1.369          26.77          31.38         -3.508         0.3692         -57.92          30.04          95.79          74.44          29.14
    0.8945              -32.37          -1.37          26.76           31.4         -3.504          0.366         -57.82          30.02          95.75          74.42          29.18
    0.9416              -32.37          -1.37          26.76          31.42         -3.499         0.3626          -57.7           30.0           95.7          74.41          29.23
    0.9887              -32.37         -1.371          26.75          31.44         -3.494         0.3588         -57.57          29.98          95.65          74.38          29.28
     1.036              -32.37         -1.372          26.75          31.47         -3.489         0.3546         -57.43          29.96           95.6          74.36          29.34
     1.083              -32.36         -1.373          26.75           31.5         -3.482         0.3499         -57.28          29.94          95.54          74.34          29.41
      1.13              -32.36         -1.374          26.74          31.53         -3.475         0.3447          -57.1          29.91          95.47          74.31          29.48
     1.177              -32.36         -1.375          26.73          31.56         -3.468         0.3389         -56.91          29.88           95.4          74.27          29.56
     1.224              -32.36         -1.376          26.73           31.6         -3.459         0.3325         -56.69          29.84          95.31          74.24          29.65
